<svg width="692" height="510" viewBox="0 0 692 510" fill="none" xmlns="http://www.w3.org/2000/svg">
<path fill-rule="evenodd" clip-rule="evenodd" d="M228 436C251.692 436 273.904 429.662 293.033 418.589C316.839 445.23 351.461 462 390 462C433.987 462 472.871 440.154 496.395 406.72C499.239 406.906 502.109 407 505 407C558.211 407 603.955 375.031 624.073 329.252C664.538 307.22 692 264.317 692 215C692 166.997 665.982 125.071 627.279 102.554C603.853 68.4019 564.543 46 520 46C510.298 46 500.845 47.0627 491.749 49.0782C467.932 19.1702 431.205 0 390 0C359.372 0 331.217 10.592 309 28.3128C286.783 10.592 258.628 0 228 0C176.496 0 131.987 29.9517 110.941 73.3871C48.1793 82.6075 0 136.677 0 202C0 263.451 42.6369 314.943 99.9413 328.508C110.601 389.577 163.879 436 228 436ZM62.5 495C74.9264 495 85 484.926 85 472.5C85 460.074 74.9264 450 62.5 450C50.0736 450 40 460.074 40 472.5C40 484.926 50.0736 495 62.5 495ZM30 495C30 503.284 23.2843 510 15 510C6.71573 510 0 503.284 0 495C0 486.716 6.71573 480 15 480C23.2843 480 30 486.716 30 495ZM115 462C131.569 462 145 448.569 145 432C145 415.431 131.569 402 115 402C98.4315 402 85 415.431 85 432C85 448.569 98.4315 462 115 462Z" fill="#EAEAEA"/>
</svg>
